<svg xmlns="http://www.w3.org/2000/svg" viewBox="0 0 1024 1024" xml:space="preserve">
    <path
                className="first-wave"
                d="M837.057 452.98c-5.924 2.178-11.753 4.672-17.788 6.479-23.26 6.965-46.942 8.447-71.027 5.4-20.364-2.576-39.074-10.534-58.258-17.016-15.512-5.241-31.349-8.848-47.867-8.532-17.68.34-34.339 5.356-51.008 10.686-15.013 4.8-29.891 10.246-45.638 12.403-24.585 3.366-48.428 1.222-71.12-9.551-1.493-.709-3.1-1.175-5.01-1.801-.355-.047-.325-.02-.325-.02-16.185-8.87-32.156-18.164-48.626-26.47-12.121-6.112-25.573-6.865-38.99-6.633-2.889.05-5.801.678-8.894-.024.99-1.993 2.716-1.85 4.634-2.76 14.907-3.234 28.986-3.31 42.811 1.837 1.865.694 3.754 1.334 5.585 2.108 1.622.686 3.179 1.524 4.764 2.295-16.702-11.05-34.684-11.646-53.296-6.365-16.725 3.412-32.607 9.376-48.182 16.176-18.903 8.254-36.945 18.41-56.619 24.984-23.02 7.691-46.348 13.416-70.815 13.03-3.984-.064-7.956-.69-11.942-.896-4.217-.219-5.627-2.16-4.234-6.238 3.914-1.317 7.61.455 11.346.721 25.872 1.846 50.1-4.902 74.16-13.263 20.52-7.13 39.566-17.548 59.59-25.74 17.428-7.129 35.38-12.705 53.694-17.168 18-4.387 34.635-1.033 50.505 7.885 1.945 1.093 3.674 2.826 6.613 2.913-1.74-5.009-5.698-7.511-9.542-9.859-17.074-10.427-35.41-10.849-53.993-5.553-24.566 7-47.716 17.732-70.966 28.146-20.212 9.053-40.415 18.193-61.605 24.754-18.453 5.712-37.398 5.581-56.38 3.19-1.95-.245-4.04-.947-3.825-3.701.211-2.72 2.146-2.641 4.022-2.302 29.415 5.329 55.463-3.922 80.557-18.103 22.226-12.561 41.137-29.399 60.627-45.553 18.59-15.407 36.979-31.122 58.021-43.253 13.48-7.77 27.306-14.952 42.96-16.891 36.658-4.541 67.125 13.067 76.604 46.787 4.83 17.182-.8 32.494-11.336 46.264-.201.263-.424.528-.69.72-2.3 1.67-4.334 5.457-7.44 3.456-3.043-1.96.167-4.804.98-7.064 3.824-10.611 1.355-24.15-5.84-30.728-6.792-6.208-18.387-6.343-25.174-.187-8.507 7.715-11.328 17.364-7.753 28.125 6.972 20.989 22.79 32.274 43.584 36.924 28.677 6.414 56.856 3.938 84.53-5.854 14.894-5.27 29.79-10.63 45.529-13.037 23.587-3.608 46.459-.336 68.799 7.307 17.155 5.87 33.986 12.59 51.952 15.973 31.498 5.932 61.567 1.401 90.823-10.88 2.537-1.066 5.961-4.814 8.12-.64 2.297 4.442-2.516 5.152-5.318 6.593-.296.152-.57.345-1.102.734-.248.215-.207.191-.207.191M437.22 403.011l4.644 2.358c-1.925-4.623-4.833-6.95-8.145-8.892-14.88-8.725-30.83-9.215-47.404-6.746-21.396 3.187-40.992 11.188-60.044 20.95-11.631 5.96-23.378 11.696-34.493 18.643 1.294-.245 2.454-.774 3.628-1.273 27.107-11.541 54.093-23.328 82.332-32.041 20.81-6.42 40.34-5.162 59.482 7m27.893-27.35c-.14-1.535-1.362-2.272-2.424-2.99-13.622-9.213-28.568-14.206-45.107-13.062-11.952.827-23.67 3.262-35.159 6.757-12.021 3.658-23.567 8.293-33.872 15.634 18.586-7.782 37.478-14.564 57.625-16.747 15.949-1.728 31.808-1.29 45.382 8.825 4.432 3.302 8.407 4.031 13.555 1.582M328.68 401.835c2.604-1.096 5.212-2.184 7.813-3.29 19.88-8.45 39.585-17.529 60.822-22.066 16.225-3.467 32.387-3.907 47.099 6.022 1.722 1.163 3.078 3.017 5.504 3.452 1.852-2.937.601-5.036-1.64-6.861-5.013-4.084-10.789-6.518-17.112-7.68-12.002-2.204-23.913-.887-35.607 1.772-17.89 4.069-34.934 10.709-51.544 18.451-6.885 3.21-14.117 5.837-19.822 11.463 1.637.452 2.61-.75 4.487-1.263m153.606-28.628c-5.97-6.914-12.95-12.472-21.505-15.875-25.14-9.998-50.427-9.108-75.75-.824-3.48 1.14-6.557 3.25-9.318 5.712 19.206-6.218 38.512-9.973 58.888-7.765 20.863 2.262 36.387 14.561 52.837 25.684-1.563-2.134-3.127-4.268-5.152-6.932m-56.68-33.849c-7.32.034-14.415 1.031-20.287 4.215 36.79-3.827 69.484 2.854 90.068 37.522-3.715-11.471-11.085-21.284-21.53-28.738-14.15-10.1-30.511-12.423-48.25-12.999m-18.98 41.905c-1.829.036-3.667-.026-5.485.138-1.576.142-3.13.542-4.692.828 8.404.363 16.739-.525 24.925 1.564 8.16 2.083 15.647 5.78 23.02 10.521 1.036-4.393-1.766-5.705-4.022-7.22-10.054-6.75-21.432-6.248-33.745-5.83z"
            />
            <path
                className="second-wave"
                d="M395.11 483.022c-10.835-3.525-21.55-4.43-32.46-3.666-10.36.726-20.424 4.137-30.908 4.553-.082-2.411.854-2.78 1.787-3.176 6.554-2.783 13.537-3.898 19.636-8.622 5.81-4.5 13.932-4.955 21.51-5.432 18-1.134 35.02 3.084 51.823 8.878 20.446 7.051 40.421 15.416 61.73 19.997 25.447 5.471 50.268 3.54 74.988-3.712 13.285-3.897 25.98-9.4 39.043-13.903 29.988-10.338 59.663-9.683 89.656.31 17.178 5.724 34.173 12.578 52.31 14.786 24.999 3.044 49.072-.548 71.547-12.351 7.866-4.13 16.079-7.242 24.45-10.047 1.373-.46 3.06-1.296 3.746.852.631 1.973.07 3.905-2.054 4.446-15.455 3.936-28.44 13.84-43.77 18.023-3.627.99-7.357 1.597-10.97 2.663 11.414-1.28 22.746-2.896 33.114-8.365 6.197-3.269 12.514-6.258 19.325-8.057 1.603-.423 3.408-1.186 4.213 1.06.658 1.835-.696 2.764-2.147 3.379-15.106 6.401-29.208 15.247-46.094 17.194-14.709 1.697-29.226.92-43.785-1.006-21.894-2.895-43.07-8.697-63.762-16.222-30.578-11.121-60.702-9.673-90.71 2.178-16.42 6.484-33.098 12.173-50.52 15.51-31.966 6.123-62.841 2.557-93.145-9.045-21.756-8.33-43.56-16.808-66.773-20.357-10.253-1.568-20.558-.868-30.696 1.604 6.992-.646 13.996-1.336 21.013-1.032 15.718.68 30.214 6.461 44.915 11.235 14.244 4.625 27.854 11.082 42.419 14.824 21.435 5.508 43.205 7.86 65.32 7.174 3.79-.117 7.587-.016 11.418.489-4.611 2.59-9.756 2.384-14.667 3-32.249 4.041-62.961-2.102-92.748-14.274-12.498-5.107-25.382-9.096-38.755-12.888z"
            />

            <path
                className="third-wave"
                d="M675.26 470.868c-27.278-6.06-53.308-2.958-78.712 7.148-18.271 7.269-36.834 13.635-56.221 17.275-17.788 3.34-35.39 1.97-53.009-1.687-20.87-4.333-40.165-13.042-59.861-20.684-15.163-5.883-30.8-9.741-47.173-9.484-13.482.212-26.121 4.68-38.898 8.386-28.611 8.298-56.366 19.278-85.236 26.809-21.593 5.633-43.386 8.56-65.683 7.675-.831-.033-1.67-.04-2.491-.16-1.806-.267-3.168-1.016-3.175-3.146-.01-2.534 1.784-2.338 3.48-2.373 7.647-.155 15.28.361 22.945-.573 28.402-3.46 55.833-10.935 82.808-20.1 23.169-7.873 46.233-16.019 70.232-21.071 21.25-4.473 41.575-.643 61.697 6.488 17.26 6.117 33.734 14.238 51.38 19.374 32.733 9.527 64.748 7.481 96.43-4.658 15.518-5.947 30.814-12.586 47.291-15.774 20.963-4.055 41.621-3.621 62.12 2.772 15.082 4.704 29.749 10.64 45.296 13.987 33.968 7.314 66.08 2.328 96.883-13.165 4.75-2.39 9.75-4.285 14.648-6.375 1.443-.615 2.999-1.079 3.73.942.652 1.802.153 3.1-1.762 4.007-27.467 13.011-55.076 25.477-86.58 23.771-17.562-.951-34.663-4.192-51.086-10.6-9.332-3.642-18.984-6.175-29.054-8.784z"
            />
            <path
                className="forth-wave"
                d="M249.48 481.617c-19.943 5.374-39.698 8.982-60.069 7.083-4.85-.453-4.87-.736-4.043-5.798.896-.087 1.87-.33 2.819-.25 22.863 1.887 44.546-3.851 66.33-9.678 29.043-7.769 56.524-19.838 84.807-29.68 11.765-4.095 23.703-7.761 36.103-9.674 13.76-2.123 26.858.327 39.61 5.3 21.716 8.466 42.741 18.629 64.717 26.459 19.653 7.003 39.914 8.536 60.562 6.69 3.186-.285 6.42-.04 10.318-.04-2.381 2.315-4.836 2.741-7.2 3.19-28.883 5.492-56.537 1.486-83.35-10.313-14.925-6.569-30.223-12.288-45.254-18.624-19.294-8.134-38.792-8.077 -58.624 -2.317z"
            />
            <path
                className="fifth-wave"
                d="M836.998 453.019c.468-.104.948-.283 1.44-.331 1.917-.187 4.44-2.394 5.498.757.972 2.9-1.464 3.887-3.788 4.812-11.906 4.74-23.76 9.613-35.65 14.392-29.47 11.844-59.116 11.436-88.813 1.001-15.701-5.517-31.246-11.392-47.875-13.795-24.762-3.579-48.814-1.122-72.062 8.02-16.28 6.403-32.58 12.77-49.486 17.263-29.377 7.809-57.806 3.261-85.49-7.83-14.056-5.63-27.516-12.627-41.8-17.816-22.755-8.266-45.314-8.63-68.496-1.672-27.284 8.19-53.803 18.584-80.969 27.086-22.662 7.092-45.7 11.997-69.503 12.744-3.82.12-7.655-.175-11.48-.354-1.937-.091-3.743-.521-3.658-3.073.092-2.762 2.19-2.566 3.983-2.51 15.562.494 30.903-1.059 46.143-4.27 25.49-5.37 50.3-13 74.504-22.512 20.667-8.122 41.701-14.573 63.596-18.613 15.771-2.91 30.41.222 45.025 5.166 11.85 4.008 23.195 9.204 34.425 14.718 25.85 12.695 53.221 18.171 81.903 15.317 13.989-1.392 27.02-7.006 40.129-11.856 15.127-5.597 29.703-12.967 45.871-15.262 28.348-4.025 56.064-2.207 82.719 9.437 13.813 6.035 28.547 8.773 43.41 10.945 23.646 3.455 45.539-2.463 66.894-11.83 7.615-3.34 15.379-6.343 23.332-9.737.257-.237.216-.213.198-.197z"
            />
            <path
                className="sixth-wave"
                d="M468.967 450.992c15.4 8.56 31.993 12.698 49.55 13.72 25.181 1.465 48.817-5.145 72.153-13.323 18.817-6.594 37.858-11.72 58.043-10.52 18.46 1.099 36.094 5.925 53.31 12.383 22.563 8.465 45.467 15.208 69.894 14.922 1.604-.02 3.343-.069 4.956 1.406-2.108 1.959-4.662 1.463-6.998 1.648-26.66 2.106-51.886-4.565-76.718-13.001-18.178-6.176-36.187-12.527-55.872-10.978-14.365 1.131-28.256 4.231-41.84 8.957-16.177 5.629-32.176 12.242-49.292 14.234-24.3 2.828-48.134.718-71.048-8.938-15.809-6.663-31.479-13.619-46.676-21.53-23.716-12.349-47.885-14.336-73.392-6.062-21.427 6.952-41.915 16.175-62.875 24.247-22.57 8.692-45.592 15.834-69.555 19.545-11.407 1.767-22.883 1.713-34.36.556-1.793-.18-3.344-.598-3.398-2.808-.067-2.717 1.901-2.743 3.783-2.723 5.995.066 11.996.394 17.985.244 24.984-.626 48.431-8.183 71.734-16.257 24.089-8.345 46.89-19.876 70.855-28.58 27.151-9.863 53.406-9.043 79.187 4.374 12.994 6.762 26.347 12.792 40.254 18.46.369.06.339.033.32.024z"
            />
            <!-- Letters -->
            <!-- Elwood -->
            <path d="M468.967 583.599a2793.75 2793.75 0 0 1 3.905 8.488c2.58-5.748 4.87-10.758 7.084-15.802 3.883-8.843 7.677-17.725 11.59-26.555 1.97-4.443 10.427-6.9 14.516-4.335 2.287 1.435 1.094 3.165.36 4.79-8.774 19.422-17.612 38.813-26.304 58.27-1.209 2.706-2.98 3.624-5.757 3.814-4.077.28-6.812-.799-8.674-4.894-5.027-11.062-10.478-21.932-15.775-32.871-.353-.729-.82-1.402-1.515-2.576-3.457 4.739-5.305 9.875-7.703 14.685-3.489 7-6.912 14.045-10.012 21.223-1.545 3.577-4.034 4.36-7.498 4.4-3.574.04-5.784-1.088-7.293-4.618-8.181-19.135-16.621-38.158-24.915-57.246-1.847-4.249-1.1-5.297 3.54-5.55 9.36-.512 9.417-.537 13.237 8.232 5.448 12.504 10.8 25.049 16.601 38.524 2.864-6.031 5.413-11.316 7.89-16.635 4.148-8.905 8.249-17.833 12.374-26.75.839-1.813 1.53-3.893 4.022-3.878 2.366.013 2.698 2.16 3.457 3.755 5.582 11.725 11.14 23.461 16.87 35.529zM795.053 544.759c10.94.138 21.444-.719 31.761 1.788 15.628 3.797 25.876 17.281 24.957 32.875-.996 16.875-12.888 29.903-29.009 31.913-11.44 1.427-22.923.548-34.384.823-3.436.082-4.682-1.73-4.672-4.976.053-18.963.087-37.927.03-56.89-.012-4.111 1.937-5.715 5.836-5.534 1.66.077 3.326.005 5.48 0m39.375 42.893c.227-.625.53-1.234.67-1.879 3.604-16.579-3.923-27.243-19.806-26.76-4.155.126-8.32.113-12.476.009-3.041-.076-4.607.904-4.567 4.27.123 10.147.103 20.297.006 30.444-.028 2.951 1.062 4.272 4.07 4.214 4.99-.096 9.983-.094 14.972-.001 7.54.139 13.116-3.037 17.13-10.297zM248.17 548.367c.083 1.778.018 3.117.138 4.44.416 4.598-1.918 6.278-6.226 6.257-10.16-.048-20.332.323-30.475-.078-5.98-.236-5.126 3.344-5.362 7.064-.265 4.179.828 6.072 5.484 5.847 7.477-.362 14.99.07 22.478-.155 5.851-.175 5.073 3.717 5.218 7.408.15 3.819-.364 6.414-5.261 6.23-7.817-.296-15.66.127-23.479-.133-5.294-.176-4.278 3.357-4.344 6.385-.07 3.155-.714 6.456 4.434 6.337 10.32-.24 20.651-.153 30.977-.09 5.66.034 6.503 1.114 6.45 7.472-.05 5.953-.792 6.825-6.492 6.845-14.823.054-29.648-.055-44.47.077-4.103.037-5.61-1.6-5.584-5.64.117-18.653.142-37.308.02-55.961-.028-4.333 1.737-5.952 5.943-5.924 14.989.099 29.979.04 44.969.038 2.436 0 4.742.218 5.582 3.58zM666.71 588.996c-6.224-22.514 7.628-42.356 30.43-44.4 12.167-1.09 23.373 1.157 32.176 9.955 9.614 9.61 12.53 21.462 8.235 34.451-4.368 13.216-14.191 20.65-27.616 23.102-17.478 3.194-33.17-3.607-40.764-17.236-.963-1.729-1.585-3.647-2.462-5.872m54.893-20.893c-3.154-5.57-8.179-8.592-14.15-10.212-11.82-3.206-23.49 3.29-26.668 14.767-3.177 11.473 3.443 23.185 15.246 26.292 8.457 2.226 16.32.562 22.408-5.99 6.608-7.11 6.896-15.442 3.164-24.857zM559.99 605.09c-11.459-9.827-15.719-23.407-11.443-36.542 4.733-14.539 15.062-22.25 30.058-23.93 18.903-2.118 34.794 6.78 40.19 22.402 7.089 20.52-5.811 41.853-27.322 45.212-11.31 1.766-21.83.023-31.482-7.142m6.51-40.01c-5.817 8.603-5.768 19.014.126 26.443 5.782 7.288 16.758 10.195 25.803 6.835 8.138-3.024 13.82-11.681 13.226-20.931-.559-8.686-4.726-15.225-13.095-18.358-9.59-3.59-18.294-2.152-26.06 6.01z" />
            <path d="M249.48 19.636zM313.568 545.048c3.284 1.326 2.762 3.883 2.767 6.144.027 13.828.116 27.66-.08 41.485-.056 3.887 1.145 5.323 5.11 5.24 10.159-.216 20.325-.142 30.488-.093 5.692.027 6.868 1.356 6.855 7.263-.013 5.998-1 7.114-6.85 7.131-14.662.043-29.325-.083-43.986.043-4.247.036-6.057-1.602-6.036-5.871.092-18.494.106-36.989.03-55.482-.018-4.423 1.723-6.556 6.268-6.134 1.654.153 3.327.11 5.434.274zM730.3 2.46 4.746 5.127 3.803 8.876z" />
            <!-- Book Club -->
            <path d="M249.48 7.114-6.85 7.131-14.662.043-29.325-.083-43.986.043-4.247.036-6.057-1.602-6.036-5.871.092-18.494.106-36.989.03-55.482-.018-4.423 1.723-6.556 6.268-6.134 1.654.153 3.327.11 5.434.274zM730.3 648.68c2.958 2.46 4.746 5.127 3.803 8.876-.975 3.882-3.948 5.786-7.526 6.441-5.403.99-10.904 1.206-16.408.962-2.807-.124-4.258-1.462-4.233-4.373.061-7.489.075-14.978.084-22.468.003-3.018 1.177-4.615 4.487-4.456 3.82.183 7.66-.076 11.482.07 10.099.382 13.245 6.092 8.31 14.948m-10.15 10.958c2.03.096 3.97-.38 5.713-1.338 2.15-1.182 2.444-3.047 1.106-5.006-1.2-1.756-10.364-3.207-12.817-1.757-3.147 1.86-1.289 4.887-1.44 7.39 2.316 1.178 4.495.524 7.437.711m-4.268-20.558c-3.012-.135-3.626 1.704-3.465 4.196.168 2.615 2.087 2.65 3.963 2.644 2.323-.007 4.658.018 6.964-.21 1.828-.179 3.157-1.315 3.136-3.259-.022-1.977-1.44-2.951-3.264-3.121-2.145-.2-4.31-.19-7.334-.25zM303.03 633.692c3.644.094 6.87-.186 9.95.355 8.386 1.475 10.485 7.145 5.233 14.278 2.883 2.714 5.877 5.66 3.791 10.187-2.092 4.541-6.266 5.462-10.756 5.955-16.508 1.811-16.504 1.856-16.518-14.313-.002-2.832-.005-5.664.005-8.496.027-7.933.03-7.933 8.296-7.966m10.605 24.925c1.724-.673 2.78-1.815 2.406-3.78-.356-1.874-1.814-2.847-3.466-3.127-2.095-.356-4.265-.26-6.4-.393-2.944-.184-5.12.157-5.102 4.085.017 3.74 1.808 4.559 4.955 4.19 2.289-.267 4.58-.52 7.607-.975m-2.841-19.377c-1.987-.06-3.973-.135-5.96-.174-2.416-.046-3.676 1.01-3.635 3.579.038 2.344 1.238 3.283 3.406 3.289 1.988.005 3.978.007 5.964-.068 1.784-.067 3.374-.744 3.843-2.58.57-2.23-.834-3.35-3.618-4.046zM439.912 650.665c-1.552 8.096-6.22 12.9-13.812 14.342-6.664 1.266-12.552-.691-16.811-6.253-4.157-5.427-4.443-12.367-.738-18.181 3.772-5.92 9.526-8.195 16.243-7.624 7.172.61 12.775 5.472 14.406 11.917.444 1.752.524 3.597.712 5.799m-7.23-4.492c-2.366-5.618-6.458-8.426-11.237-7.708-4.737.71-7.738 3.803-8.294 8.546-.731 6.242 1.373 10.282 6.281 12.104 7.236 2.686 15.07-3.962 13.25-12.942zM378.839 657.555c-5.692 7.067-12.31 9.334-19.51 6.935-6.692-2.23-11.175-7.702-11.605-14.167-.448-6.729 3.326-13.163 9.255-15.78 6.875-3.034 14.9-1.681 19.886 3.352 5.063 5.112 5.794 11.6 1.974 19.66m-4.15-9.813c-.441-5.011-3.542-7.767-8.058-9.036-3.928-1.104-7.27.34-9.811 3.364-3.271 3.892-3.405 8.173-.908 12.522 2.464 4.29 6.284 5.817 11.027 4.879 4.458-.882 7.078-4.712 7.75-11.729zM471.45 659.994c-.154 2.41.64 4.99-2.893 4.952-3.347-.036-3.58-2.274-3.58-4.776 0-7.315-.063-14.63-.006-21.945.017-2.16.018-4.465 3.27-4.48 3.312-.016 3.139 2.268 3.162 4.453.032 3.129.008 6.258.008 9.607 7.978-3.428 10.207-14.631 21.212-14.01-2.02 4.489-5.33 6.843-8.15 9.44-2.772 2.551-2.535 4.402-.343 7.048 3.552 4.288 7.308 8.467 10.53 14.328-10.718 1.122-11.432-9.516-17.993-12.907-2.864 1.608-5.065 4.015-5.217 8.29zM650.758 639.188c.245-2.697-.344-5.531 3.32-5.369 3.539.157 3.015 2.93 3.083 5.166.097 3.158.016 6.321.028 9.482.032 8.11 2.283 11.285 7.95 11.24 5.508-.044 7.601-3.075 7.617-11.014.007-3.66.015-7.32.04-10.98.014-2.18.419-3.977 3.247-3.95 2.803.028 3.21 1.79 3.206 3.989-.01 4.824.206 9.66-.055 14.47-.447 8.228-6.049 13.127-14.567 13.09-8.255-.036-13.403-4.852-13.813-13.172-.205-4.15-.053-8.316-.056-12.952zM555.17 663.173c-8.554-5.982-10.72-15.097-5.707-22.718 5.016-7.626 15.844-9.793 23.898-4.773 1.264.788 2.881 1.566 1.932 3.428-.812 1.593-2.202 2.5-4.14 1.652-1.217-.534-2.412-1.131-3.662-1.576-4.862-1.73-9.501-.272-12.282 3.809-2.683 3.935-2.43 9.078.639 13.032 2.827 3.641 7.45 4.74 12.145 2.81 1.223-.502 2.371-1.194 3.533-1.837 1.648-.91 2.87-.263 3.895 1.041 1.332 1.693.252 2.75-1.064 3.664-5.962 4.134-12.234 4.841-19.188 1.468zM601.966 649c.028-4.162.02-7.827.09-11.49.043-2.25.793-3.832 3.51-3.782 2.746.05 3.337 1.748 3.363 3.949.055 4.663.062 9.326.073 13.99.017 7.997.012 7.993 7.778 8.004 1.832.003 3.665.012 5.496.067 1.684.052 2.934.645 2.872 2.629-.054 1.71-1.238 2.352-2.651 2.377-5.824.1-11.65.181-17.473.076-2.26-.04-3.02-1.767-3.03-3.83-.019-3.832-.021-7.662-.028-11.99zM805 648.67c12.143.003 23.786-.032 35.429.047 1.8.013 4.575-.708 4.448 2.421-.108 2.637-2.604 2.099-4.304 2.103-21.623.047-43.245.055-64.868.005-1.822-.004-4.576.649-4.457-2.435.1-2.623 2.598-2.088 4.311-2.099 9.647-.06 19.294-.036 29.441-.041zM185.934 652.896c-2.927-5.021.976-4.187 3.373-4.196 17.638-.07 35.276-.03 52.915-.024 3.993.002 7.987-.015 11.98.034 1.487.019 3.285-.033 3.421 2.013.156 2.344-1.676 2.539-3.426 2.543-6.988.019-13.977.038-20.966.011-15.637-.058-31.274-.144-47.297-.38z" />
</svg>
